<?xml version="1.0" encoding="UTF-8"?><svg id="Layer_2" xmlns="http://www.w3.org/2000/svg" viewBox="0 0 383.86 46.23"><defs><style>.cls-1{fill:#8b8b8b;}</style></defs><g id="Layer_1-2"><path class="cls-1" d="m0,19.36C2.15,12.21,5.48,5.67,12.76,2.79,17.04,1.09,21.91.13,26.52.13,120.58-.02,214.65.02,308.71.02c16.74,0,33.48-.04,50.22.02,12.42.04,21.6,6.81,24.24,17.7,3.53,14.55-6.93,27.65-22.74,28.46-.75.04-1.5.02-2.25.02-110.8,0-221.61-.01-332.41.02-10.33,0-18.52-3.59-23.38-13.12C1.38,31.13.79,28.95,0,26.86c0-2.5,0-5,0-7.5Z"/></g></svg>