<?xml version="1.0" encoding="UTF-8"?><svg id="Layer_2" xmlns="http://www.w3.org/2000/svg" viewBox="0 0 427.84 427.93"><defs><style>.cls-1{fill:#fff;}.cls-2{fill:#8b8b8b;}</style></defs><g id="Layer_1-2"><path class="cls-1" d="m427.84,218.15v209.78h-209.75c13.07-4.26,17.49-13.58,17.41-26.89-.33-53.34-.14-106.69-.14-160.04v-5.58h6c54.17,0,108.35-.02,162.52.02,6.82,0,13.23-1.29,17.76-6.65,2.61-3.09,4.17-7.07,6.2-10.64Z"/><path class="cls-2" d="m427.84,218.15c-2.03,3.58-3.59,7.56-6.2,10.64-4.53,5.36-10.94,6.66-17.76,6.65-54.17-.04-108.35-.02-162.52-.02h-6v5.58c0,53.35-.2,106.69.14,160.04.08,13.31-4.34,22.62-17.41,26.89h-8.36c-.2-.18-.38-.45-.61-.53-11.91-4.23-16.64-10.83-16.65-23.42-.01-54.17,0-108.34,0-162.5,0-1.79,0-3.59,0-6.05-2.04,0-3.79,0-5.53,0-54.44,0-108.88.01-163.31-.01-12.28,0-20.64-6.2-23.11-16.98-2.67-11.6,5.29-23.53,17.04-25.41,2.46-.39,4.99-.48,7.48-.48,53.88-.03,107.76-.02,161.64-.02,1.77,0,3.53,0,5.79,0,0-2.26,0-4.02,0-5.79,0-54.31,0-108.62,0-162.92,0-12.5,6.29-20.95,17.22-23.35,11.42-2.5,23.22,5.41,25.13,16.96.43,2.59.51,5.27.51,7.9.03,53.75.02,107.5.02,161.25,0,1.78,0,3.56,0,5.94,2.13,0,3.88,0,5.63,0,53.32,0,106.65.19,159.97-.13,13.29-.08,22.63,4.31,26.87,17.41v8.36Z"/></g></svg>